<svg id="Layer_1" data-name="Layer 1" xmlns="http://www.w3.org/2000/svg" viewBox="0 0 384.12 135.24"><defs><style>.cls-1{fill:#ee0a0a;}</style></defs><title>bricabrac</title><path class="cls-1" d="M314,331.56q8.58-.73,17.16-2.12c4.32-.68,6.76-.47,7.45.83s-.15,3.42-2.64,6.3A24.51,24.51,0,0,1,330.9,341a29,29,0,0,1-3.8,2.07,43.8,43.8,0,0,1-5.06,2l-.09.1c2.24.23,3.38,1,3.45,2.4s-.88,3.11-2.48,5a28.94,28.94,0,0,1-10.71,7.58,32.89,32.89,0,0,1-13.34,2.94q-11.59,0-23.19-1Zm1.77,3.59-10.55,9.13q5.34-.19,10.69-.6a19.41,19.41,0,0,0,7.4-2,17.66,17.66,0,0,0,5.21-3.71c1.32-1.4,1.81-2.51,1.51-3.29s-1.74-.91-4.24-.61Q320.79,334.7,315.78,335.15ZM300.3,348.54l-11.06,9.56q6.25.22,12.5.15a20.33,20.33,0,0,0,8.13-1.73,17,17,0,0,0,5.47-3.73c1.34-1.44,1.81-2.62,1.45-3.54s-1.95-1.25-4.75-1.12Q306.17,348.47,300.3,348.54Z" transform="translate(-275.67 -227.81)"/><path class="cls-1" d="M353.17,324.93q8.65-2.13,17.3-4.76c3.69-1.12,6.17-1.21,7.55-.16,1.73,1.14,1.74,3.62-.1,7.42-3,5.66-8.08,10.35-15.63,13.68A125,125,0,0,0,364.62,357q-4.95.86-9.9,1.62a125.06,125.06,0,0,1-.65-15.26q-4.89.93-9.78,1.72l-11.63,16.32q-4.17.41-8.33.72Zm-5.22,15q5.63-1,11.25-2.27a19,19,0,0,0,7.42-3.41,16.27,16.27,0,0,0,4.55-5c1.15-2.11,1.24-3.43.29-4-.7-.5-2.15-.42-4.37.19q-5.44,1.49-10.88,2.81Z" transform="translate(-275.67 -227.81)"/><path class="cls-1" d="M392.33,312.88q3.35-1.21,6.7-2.47l-17.7,43.39q-4.16.86-8.33,1.65Z" transform="translate(-275.67 -227.81)"/><path class="cls-1" d="M432.93,328.53a30.13,30.13,0,0,1-8.54,12.1,32.57,32.57,0,0,1-13.14,6.67c-4.31,1-7.69,1-10,0s-3.91-2.2-4.49-3.93q-.24-.86-.39-1.66a8,8,0,0,1,.11-2.19,74.2,74.2,0,0,1,3.1-10.15,105.84,105.84,0,0,1,4.14-10.51,28.65,28.65,0,0,1,3-4.8,50.68,50.68,0,0,1,7.1-7.55,34.62,34.62,0,0,1,9.48-6.15c4.25-1.76,7.4-1.94,9.63-.42s3.41,4.16,3.5,7.87q-3.81,1.46-7.61,2.88a4.6,4.6,0,0,0-2.1-3.63c-1.28-.65-3-.55-5.22.28a19.14,19.14,0,0,0-4.49,2.61,24.92,24.92,0,0,0-3.61,3.44,17.72,17.72,0,0,0-3,4.43,75.14,75.14,0,0,0-3.35,9.27,50.82,50.82,0,0,0-2.24,8.87,3.71,3.71,0,0,0,.89,3.27,4.23,4.23,0,0,0,2.69,1.39,9,9,0,0,0,4.64-.28c4.57-1.23,8.48-4.3,11.56-9.26Q428.76,329.82,432.93,328.53Z" transform="translate(-275.67 -227.81)"/><path class="cls-1" d="M466.4,320.66q-10,3.16-20,6.27-2.6,6.11-5.39,12.14l-8.83,2.41a421.7,421.7,0,0,0,23.86-55.16l5.62-2.55a376.43,376.43,0,0,0,17.5,44.52l-8.79,2.5Q468.31,325.69,466.4,320.66Zm-2.06-6.07q-3.35-9.82-6-19.35l-.13.05q-4.06,12.3-8.8,24.31Q456.86,317.11,464.34,314.58Z" transform="translate(-275.67 -227.81)"/><path class="cls-1" d="M483.75,273.74q8.58-3.89,17.16-7.71c4.36-1.88,7.82-2,10.51-.21s4.53,4.92,5.35,9.39a15.57,15.57,0,0,1-.22,7.07,12.89,12.89,0,0,1-1.71,3.59,20.15,20.15,0,0,1-3.16,3.77l0,.15a8.54,8.54,0,0,1,7,2.66,15.49,15.49,0,0,1,3.48,7.42c.85,4.83.14,9-2.26,12.61a16.69,16.69,0,0,1-10.09,7.26q-11.6,3.14-23.19,6.45Zm7.31,4.11,1.29,15.28q5.34-2,10.69-3.91a9.56,9.56,0,0,0,6.67-10.75,7.07,7.07,0,0,0-2.72-4.9c-1.42-.95-3.38-.92-5.92.09Q496.06,275.73,491.06,277.85Zm1.89,22.42,1.35,16q6.25-1.88,12.5-3.71c3-.93,5.1-2.4,6.24-4.45a9.52,9.52,0,0,0,1.16-6.36,7.68,7.68,0,0,0-2.91-5.17c-1.57-1.15-3.75-1.27-6.59-.35Q498.82,298.22,492.95,300.26Z" transform="translate(-275.67 -227.81)"/><path class="cls-1" d="M522.91,256.54q8.65-3.61,17.3-7a11.5,11.5,0,0,1,10.26.52c3.78,2,6.72,5.77,8.69,11.29,2.62,8.22,1.32,14.62-4.21,19.23q9.75,11.54,20.61,23.78-4.95.9-9.9,1.89-9.6-11.56-18.26-22.53-4.89,1.39-9.78,2.85l6,24.5q-4.17,1-8.33,2Zm12.84,22.37q5.62-1.81,11.25-3.52c2.77-.9,4.58-2.48,5.38-4.79a10.78,10.78,0,0,0,0-7.14c-1-3.09-2.47-5.09-4.39-6a6.82,6.82,0,0,0-5.64,0q-5.44,2-10.88,4Z" transform="translate(-275.67 -227.81)"/><path class="cls-1" d="M606,284.83q-10,1.28-20,3.09.58,7.3,1,14.53-4.42.7-8.83,1.48A579,579,0,0,0,573.55,238q2.81-.85,5.62-1.65,21.06,29.52,46,61.87-4.4.26-8.79.63Q611.1,291.77,606,284.83Zm-5.89-8.32q-9.59-13.46-18.5-26.44l-.13,0q2.18,14.68,3.67,29Q592.64,277.68,600.12,276.51Z" transform="translate(-275.67 -227.81)"/><path class="cls-1" d="M657.55,278.54c2.41,6.63,2.89,11.6,1.37,15s-4.91,4.85-9.71,4.76a27.14,27.14,0,0,1-12.71-3.89,40.64,40.64,0,0,1-10.16-7.93q-1.29-1.48-2.4-2.81a34.6,34.6,0,0,1-2.37-3.51q-2.4-4-7.66-15.38-5.35-11.59-6.68-15.6a25.3,25.3,0,0,1-1.39-6.63,18.63,18.63,0,0,1,1.37-9.25,8.46,8.46,0,0,1,6.87-5.32c4.29-.6,8.77,1,13.6,4.69A61.38,61.38,0,0,1,641,247.35q-3.81.11-7.61.34a32.33,32.33,0,0,0-6.89-7c-2.54-1.75-4.91-2.51-7.17-2.3a5,5,0,0,0-3.5,2,7.53,7.53,0,0,0-1.21,3.92,13.38,13.38,0,0,0,.88,5.89,143.18,143.18,0,0,0,6,13.69,141.64,141.64,0,0,0,7,13.49,22.58,22.58,0,0,0,4.81,5.63,20.2,20.2,0,0,0,5,3.31,11.85,11.85,0,0,0,5.69,1.49c4.57,0,6.37-3.1,5.21-9.52Q653.38,278.35,657.55,278.54Z" transform="translate(-275.67 -227.81)"/></svg>